<?xml version="1.0" standalone="no"?>
<!DOCTYPE svg PUBLIC "-//W3C//DTD SVG 20010904//EN"
 "http://www.w3.org/TR/2001/REC-SVG-20010904/DTD/svg10.dtd">
<svg version="1.0" xmlns="http://www.w3.org/2000/svg"
 width="942.000000pt" height="942.000000pt" viewBox="0 0 942.000000 942.000000"
 preserveAspectRatio="xMidYMid meet">
<metadata>
Created by potrace 1.14, written by Peter Selinger 2001-2017
</metadata>
<g transform="translate(0.000000,942.000000) scale(0.100000,-0.100000)"
fill="#000000" stroke="none">
<path d="M3725 8411 c-11 -5 -60 -10 -108 -10 -114 -1 -127 -8 -127 -68 0 -53
17 -85 101 -188 52 -63 92 -105 264 -273 28 -26 59 -62 70 -80 11 -17 46 -65
78 -106 45 -58 71 -81 112 -101 30 -15 59 -24 65 -20 6 3 33 -1 61 -10 30 -10
65 -15 85 -12 44 7 102 54 151 120 36 49 38 55 37 127 0 42 -10 112 -23 160
-12 47 -26 104 -31 127 -21 93 -32 108 -136 169 -109 64 -180 94 -223 94 -15
0 -71 16 -122 35 -98 37 -215 53 -254 36z"/>
<path d="M2324 7899 c-46 -23 -45 -105 1 -274 19 -71 29 -117 51 -250 9 -55
26 -125 36 -155 14 -39 22 -99 28 -205 5 -82 11 -168 14 -190 2 -22 9 -103 15
-180 6 -77 15 -167 21 -200 17 -103 14 -117 -28 -144 -20 -14 -55 -42 -77 -62
-24 -22 -60 -43 -89 -52 -60 -17 -80 -41 -52 -63 11 -8 30 -14 43 -14 13 0 38
-7 55 -16 18 -9 68 -19 116 -22 71 -4 86 -8 97 -26 25 -39 64 -250 79 -426 8
-96 17 -186 20 -200 2 -14 7 -54 11 -89 3 -35 15 -90 25 -123 10 -33 16 -66
14 -72 -6 -17 -89 -65 -207 -122 -82 -39 -111 -48 -182 -55 -90 -8 -105 -13
-105 -33 0 -20 23 -35 92 -61 35 -12 86 -32 113 -43 28 -11 93 -33 146 -47 96
-27 127 -28 216 -10 31 7 32 6 43 -36 39 -151 135 -411 245 -669 32 -74 68
-165 80 -202 13 -36 31 -82 40 -102 10 -20 15 -46 11 -58 -13 -50 -145 -207
-312 -370 -304 -299 -407 -402 -489 -494 -44 -49 -86 -93 -92 -97 -18 -11 -16
-37 2 -37 34 0 206 96 440 246 111 71 157 109 319 266 103 101 206 194 227
206 l39 23 18 -32 c32 -60 87 -138 144 -206 116 -137 138 -168 204 -287 64
-116 75 -129 248 -301 288 -287 427 -400 629 -508 104 -55 327 -148 442 -184
28 -9 79 -26 115 -39 36 -13 97 -30 135 -38 39 -8 90 -22 115 -31 38 -14 107
-19 193 -16 23 1 225 206 242 246 7 17 23 39 34 49 29 26 26 56 -9 116 -16 28
-30 53 -30 56 0 4 -10 18 -23 34 -13 15 -42 63 -65 107 -23 44 -49 86 -57 93
-9 7 -32 47 -51 89 -19 42 -45 87 -58 101 -16 17 -27 48 -35 98 -15 82 -81
286 -100 305 -10 9 -17 6 -35 -15 -19 -21 -26 -46 -35 -125 -6 -54 -16 -141
-22 -193 -6 -52 -13 -124 -16 -160 -3 -36 -9 -70 -14 -77 -8 -8 -40 -1 -127
28 -64 21 -122 39 -129 39 -8 0 -42 13 -76 29 -34 16 -72 32 -84 35 -41 13
-204 107 -267 154 -33 25 -122 100 -197 167 -75 66 -156 136 -180 157 -84 70
-97 84 -221 238 -174 218 -212 269 -252 345 -34 65 -35 68 -21 102 14 34 42
70 122 158 20 22 51 63 69 91 18 29 49 62 68 74 20 12 60 49 90 83 30 34 75
83 100 109 25 26 71 81 102 123 l57 75 -5 68 c-8 115 -71 206 -216 315 -24 17
-64 49 -88 70 -25 20 -49 37 -54 37 -13 0 -60 -60 -61 -78 0 -9 -4 -54 -8 -99
-8 -82 -8 -83 -87 -198 -92 -133 -139 -210 -219 -353 -31 -57 -61 -102 -67
-100 -10 4 -34 71 -62 178 -10 36 -23 85 -31 110 -7 25 -16 63 -20 85 -3 22
-22 90 -40 150 -41 133 -61 226 -52 248 6 16 296 167 321 167 15 0 245 97 261
110 6 4 56 28 112 53 56 25 124 60 150 80 59 43 106 67 130 67 10 0 36 9 58
19 22 10 65 27 95 37 100 31 210 100 210 130 0 18 -50 93 -95 142 -37 41 -68
58 -131 72 -27 6 -56 17 -64 25 -25 23 -157 46 -250 44 -89 -1 -182 -26 -231
-60 -26 -18 -237 -125 -299 -152 -19 -8 -109 -55 -199 -106 -90 -50 -166 -91
-169 -91 -3 0 -14 -8 -24 -17 -12 -10 -22 -13 -28 -7 -5 5 -14 66 -20 134 -11
123 -31 267 -49 345 -5 22 -14 63 -20 90 -6 28 -20 82 -30 120 -10 39 -16 75
-14 82 4 11 138 72 193 88 14 4 49 18 77 31 29 13 65 26 80 30 16 4 48 17 73
29 25 13 88 39 140 59 52 21 114 48 137 62 23 13 47 24 53 24 7 0 24 9 39 20
16 10 50 27 76 36 27 9 79 31 115 49 37 17 86 35 110 38 27 3 65 20 99 44 63
43 74 74 48 128 -8 17 -20 43 -27 58 -16 33 -68 67 -119 78 -20 4 -67 19 -106
33 -86 32 -156 33 -315 7 -111 -19 -121 -22 -305 -118 -186 -97 -223 -119
-373 -225 -46 -32 -77 -47 -83 -41 -5 5 -11 61 -14 124 -8 178 -37 469 -49
487 -3 5 0 32 8 58 28 97 36 132 42 190 6 54 3 65 -31 132 -36 70 -88 122
-123 122 -7 0 -31 9 -54 21 -29 15 -70 23 -142 28 -84 6 -114 13 -170 39 -74
35 -80 36 -112 21z"/>
<path d="M1363 7676 c-21 -26 -45 -39 -98 -55 -81 -24 -99 -44 -101 -111 0
-25 -4 -57 -8 -71 -6 -20 -1 -33 19 -57 29 -34 101 -86 134 -97 12 -3 21 -11
21 -17 0 -17 -99 -196 -145 -263 -23 -33 -65 -103 -95 -155 -29 -52 -79 -135
-110 -185 -63 -99 -165 -274 -218 -375 -18 -36 -49 -92 -67 -125 -18 -33 -77
-148 -130 -255 -156 -313 -202 -390 -240 -406 -87 -36 -155 -136 -155 -228 l0
-56 59 -38 c33 -20 99 -59 148 -85 48 -26 106 -59 128 -72 67 -41 87 -35 136
39 38 58 52 70 138 117 53 29 120 70 150 91 74 52 86 36 29 -39 -50 -65 -101
-144 -143 -218 -79 -141 -95 -172 -95 -189 0 -10 -13 -44 -29 -75 -41 -78
-126 -259 -172 -364 -21 -48 -59 -127 -85 -175 -26 -48 -60 -111 -75 -140 -40
-76 -45 -81 -97 -84 -42 -3 -48 -6 -68 -43 -104 -182 -117 -255 -63 -341 55
-86 179 -235 283 -341 l101 -103 80 1 c121 1 144 12 182 89 17 35 34 82 38
105 5 37 20 57 112 151 131 135 189 222 237 356 21 56 50 121 66 143 16 22 55
80 86 130 53 83 126 184 167 231 10 10 37 41 60 69 93 109 122 136 208 195 50
34 106 77 124 96 40 40 118 196 113 227 -5 38 -36 31 -91 -21 -29 -27 -93 -75
-142 -107 -131 -85 -273 -182 -325 -220 -25 -19 -102 -63 -170 -98 -69 -35
-147 -77 -175 -93 -66 -38 -185 -101 -212 -113 -20 -9 -150 -106 -291 -217
-120 -94 -187 -144 -194 -144 -16 0 -7 21 28 67 102 138 161 214 279 363 33
41 131 145 217 232 86 86 194 205 240 264 45 59 128 156 184 214 56 58 113
124 128 146 15 21 38 55 52 74 13 19 29 52 35 75 6 22 23 58 39 80 16 22 44
64 61 93 42 71 126 162 164 177 16 7 45 10 62 8 38 -6 100 27 151 79 40 42 75
156 74 245 -1 101 -37 150 -179 243 -57 38 -122 89 -144 114 -39 45 -42 46
-98 46 -43 0 -62 -5 -73 -17 -36 -43 -50 -120 -35 -204 10 -65 10 -69 -22
-145 -18 -43 -49 -103 -68 -133 -62 -97 -192 -269 -209 -275 -9 -3 -49 -6 -89
-6 -137 0 -249 -22 -455 -90 -55 -18 -169 -43 -247 -55 -63 -10 -65 11 -9 86
26 34 58 70 72 81 14 11 52 52 86 92 129 150 278 301 403 409 203 174 586 568
698 717 14 20 46 51 71 69 47 35 86 106 86 155 0 14 5 28 10 31 16 10 11 69
-10 118 -19 43 -159 187 -181 187 -6 0 -33 16 -62 35 -28 19 -56 35 -62 35
-14 0 -95 75 -95 88 0 6 -12 24 -26 41 -34 41 -65 40 -101 -3z"/>
<path d="M2189 4357 c-119 -104 -262 -260 -339 -371 -8 -12 -73 -95 -146 -186
-72 -91 -155 -199 -183 -240 -269 -389 -428 -582 -540 -655 -52 -35 -118 -82
-203 -147 -173 -132 -216 -159 -294 -178 -44 -11 -57 -11 -100 4 -27 9 -72 19
-101 23 -46 5 -58 2 -91 -20 -36 -23 -39 -28 -37 -69 1 -23 7 -56 14 -72 6
-16 16 -49 22 -73 13 -62 49 -105 117 -141 68 -37 174 -137 202 -192 11 -22
22 -40 24 -40 2 0 39 -9 82 -20 110 -27 165 -26 219 6 54 31 110 91 130 141 9
21 24 47 34 58 10 11 29 40 41 65 13 25 26 47 30 50 18 13 111 153 133 201 62
136 106 237 116 269 6 19 18 58 27 85 8 28 26 64 38 80 12 17 37 59 55 95 18
36 46 81 61 100 25 32 79 124 140 238 14 27 36 65 49 85 13 21 36 65 53 99 16
34 39 75 51 92 35 50 46 68 69 116 11 25 31 59 43 75 13 17 55 92 94 169 84
163 110 202 209 318 41 48 72 92 70 99 -2 6 -42 -23 -89 -64z"/>
<path d="M7253 2295 c-145 -39 -252 -141 -296 -280 -26 -83 -29 -127 -13 -202
44 -211 204 -342 416 -343 177 0 318 89 393 248 30 62 32 75 32 172 0 97 -3
110 -32 173 -87 185 -303 285 -500 232z m235 -87 c224 -83 294 -373 132 -551
-73 -80 -149 -112 -260 -111 -69 0 -95 5 -142 27 -67 30 -133 94 -168 163 -22
43 -25 62 -25 149 0 115 17 164 81 234 48 54 105 87 179 105 69 17 127 12 203
-16z"/>
<path d="M7960 1891 l0 -411 40 0 40 0 0 306 c0 280 1 305 16 293 15 -12 73
-78 389 -446 72 -84 133 -152 138 -152 4 -1 7 184 7 409 l0 410 -35 0 -35 0 0
-304 c0 -168 -4 -307 -9 -310 -4 -3 -123 129 -264 292 -140 164 -263 304 -271
311 -15 12 -16 -24 -16 -398z"/>
<path d="M8797 2293 c-4 -3 -7 -188 -7 -410 l0 -403 235 0 235 0 0 35 0 35
-192 2 -193 3 -3 163 -2 162 195 0 196 0 -3 38 -3 37 -192 3 -193 2 0 130 0
130 195 0 195 0 0 40 0 40 -228 0 c-126 0 -232 -3 -235 -7z"/>
<path d="M5374 1425 c0 -55 1 -76 3 -47 2 29 2 74 0 100 -2 26 -3 2 -3 -53z"/>
<path d="M5518 1513 c6 -2 18 -2 25 0 6 3 1 5 -13 5 -14 0 -19 -2 -12 -5z"/>
<path d="M5702 1425 l1 -100 7 80 c3 44 3 89 -1 100 -4 11 -7 -25 -7 -80z"/>
<path d="M5619 1498 c-3 -42 0 -141 5 -146 3 -3 6 31 6 76 0 45 -2 82 -5 82
-3 0 -5 -6 -6 -12z"/>
<path d="M5459 1483 c-13 -16 -12 -17 4 -4 16 13 21 21 13 21 -2 0 -10 -8 -17
-17z"/>
<path d="M5244 1452 c-16 -11 -26 -44 -12 -40 7 3 21 -5 31 -16 18 -21 18 -21
2 5 -8 14 -13 34 -9 43 7 18 4 19 -12 8z"/>
<path d="M5439 1443 c-2 -26 2 -47 10 -55 3 -4 5 10 3 32 -4 41 -11 53 -13 23z"/>
<path d="M5853 1400 c0 -36 2 -50 4 -32 2 17 2 47 0 65 -2 17 -4 3 -4 -33z"/>
<path d="M5190 1370 c-6 -11 -8 -20 -6 -20 3 0 10 9 16 20 6 11 8 20 6 20 -3
0 -10 -9 -16 -20z"/>
</g>
</svg>
